<?xml version="1.0" encoding="UTF-8"?>
<svg xmlns="http://www.w3.org/2000/svg" xmlns:xlink="http://www.w3.org/1999/xlink" width="42px" height="42px" viewBox="0 0 42 42" version="1.1">
<g id="surface1">
<path style="fill:none;stroke-width:1.5;stroke-linecap:round;stroke-linejoin:round;stroke:rgb(0%,0%,0%);stroke-opacity:1;stroke-miterlimit:4;" d="M 5 15 C 5 16.857143 5.736607 18.636161 7.051339 19.950893 C 8.363839 21.263393 10.142857 22 12 22 C 13.857143 22 15.636161 21.263393 16.950893 19.950893 C 18.263393 18.636161 19 16.857143 19 15 L 19 9 C 19 7.142857 18.263393 5.363839 16.950893 4.051339 C 15.636161 2.736607 13.857143 2 12 2 C 10.142857 2 8.363839 2.736607 7.051339 4.051339 C 5.736607 5.363839 5 7.142857 5 9 Z M 5 15 " transform="matrix(1.75,0,0,1.75,0,0)"/>
<path style="fill:none;stroke-width:1.5;stroke-linecap:round;stroke-linejoin:round;stroke:rgb(0%,0%,0%);stroke-opacity:1;stroke-miterlimit:4;" d="M 12 6 L 12 14 " transform="matrix(1.75,0,0,1.75,0,0)"/>
<path style="fill:none;stroke-width:1.5;stroke-linecap:round;stroke-linejoin:round;stroke:rgb(0%,0%,0%);stroke-opacity:1;stroke-miterlimit:4;" d="M 15 11 L 12 14 L 9 11 " transform="matrix(1.75,0,0,1.75,0,0)"/>
</g>
</svg>
